<?xml version="1.0" standalone="no"?>
<!DOCTYPE svg PUBLIC "-//W3C//DTD SVG 20010904//EN"
 "http://www.w3.org/TR/2001/REC-SVG-20010904/DTD/svg10.dtd">
<svg version="1.0" xmlns="http://www.w3.org/2000/svg"
 width="1920.000000pt" height="1920.000000pt" viewBox="0 0 1920.000000 1920.000000"
 preserveAspectRatio="xMidYMid meet">
<metadata>
Created by potrace 1.14, written by Peter Selinger 2001-2017
</metadata>
<g transform="translate(0.000000,1920.000000) scale(0.100000,-0.100000)"
fill="#000000" stroke="none">
<path d="M8615 13399 c-27 -3 -68 -9 -90 -12 -22 -3 -58 -14 -80 -23 -35 -16
-81 -18 -360 -20 -176 -1 -392 -3 -480 -4 l-160 -2 75 -14 c41 -7 86 -15 100
-18 36 -6 211 -36 240 -41 14 -3 54 -10 90 -16 36 -5 68 -13 73 -18 11 -11 4
-7266 -8 -7267 -12 0 -113 -15 -140 -20 -10 -2 -37 -6 -60 -9 -39 -6 -66 -10
-122 -20 -16 -2 -50 -7 -78 -11 -27 -3 -59 -8 -70 -10 -10 -2 -35 -6 -55 -9
-127 -19 -125 -23 10 -25 318 -5 1600 -4 1600 1 0 3 -21 9 -47 12 -27 4 -59 8
-73 11 -14 2 -59 10 -100 16 -41 6 -87 14 -103 16 -15 2 -89 13 -165 25 -75
11 -144 22 -153 25 -15 4 -16 312 -16 3674 0 2018 3 3668 6 3666 3 -2 28 -7
55 -10 27 -4 53 -9 57 -11 4 -3 24 -7 45 -11 312 -46 719 -191 979 -349 366
-221 649 -517 857 -895 89 -161 183 -418 217 -590 6 -30 14 -66 17 -80 27
-128 39 -500 20 -642 -82 -609 -353 -1121 -787 -1484 -82 -69 -93 -77 -158
-124 -317 -223 -658 -364 -1101 -456 -59 -12 -146 -36 -163 -46 -14 -7 -16
-12 -7 -23 26 -31 118 -47 289 -49 317 -4 646 76 966 234 357 176 605 382 873
725 46 59 222 352 222 369 0 3 15 38 34 78 91 192 175 490 200 703 3 22 8 69
13 105 9 85 9 364 -1 463 -8 87 -15 129 -32 225 -127 683 -580 1319 -1184
1664 -86 48 -133 72 -280 136 -108 47 -354 117 -485 138 -27 4 -57 9 -65 10
-86 17 -333 25 -415 13z"/>
</g>
</svg>
